<?xml version="1.0" encoding="UTF-8" standalone="no"?><!-- Generator: Gravit.io --><svg xmlns="http://www.w3.org/2000/svg" xmlns:xlink="http://www.w3.org/1999/xlink" style="isolation:isolate" viewBox="0 0 520 180" width="520pt" height="180pt"><defs><clipPath id="_clipPath_TeAqlotXPnJIjA9CWNVu2FMLlR1Nhg5b"><rect width="520" height="180"/></clipPath></defs><g clip-path="url(#_clipPath_TeAqlotXPnJIjA9CWNVu2FMLlR1Nhg5b)"><g><clipPath id="_clipPath_Cza65kEs6Sixiyzv0Qq75fv2LZ6TQ2HW"><rect x="0" y="0" width="520" height="190" transform="matrix(1,0,0,1,0,0)" fill="rgb(255,255,255)"/></clipPath><g clip-path="url(#_clipPath_Cza65kEs6Sixiyzv0Qq75fv2LZ6TQ2HW)"><g><path d=" M 412.77 177.741 C 412.77 177.741 446.251 104.067 418.075 45.619 C 418.075 45.619 496.387 63.105 512.211 70.281 C 512.211 70.281 522.741 110.733 508.693 145.456 C 508.693 145.456 512.436 97.302 503.518 78.361 C 503.518 78.361 467.639 66.268 435.82 62.095 C 435.82 62.095 450.333 126.763 412.77 177.741 Z " fill="rgb(107,165,58)"/></g><g><path d=" M 475.678 28.924 C 444.678 18.699 377.663 4.628 377.663 4.628 C 429.369 84.453 414.269 155.42 414.269 155.42 C 434.56 80.863 398.193 20.029 398.193 20.029 C 429.19 26.432 467.618 37.636 467.618 37.636 L 472.233 53.498 L 481.829 55.534 L 475.678 28.924 Z " fill="rgb(66,152,204)"/></g><g><path d=" M 390.868 72.848 C 384.351 57.367 378.032 45.492 378.032 45.492 L 384.355 46.582 L 386.375 49.802 L 392.622 50.222 C 391.41 46.266 386.749 38.758 386.749 38.758 C 381.348 36.734 356.938 31.958 356.938 31.958 C 367.491 46.391 375.91 60.233 382.602 72.875 L 390.868 72.848 Z " fill="rgb(157,156,156)"/></g><g><path d=" M 483.312 122.722 C 482.931 123.709 482.351 124.502 481.57 125.108 C 480.793 125.71 479.832 126.118 478.697 126.332 C 477.553 126.549 476.276 126.56 474.863 126.373 L 474.783 130.497 C 474.779 130.619 474.752 130.722 474.706 130.806 C 474.661 130.886 474.569 130.943 474.432 130.977 C 474.295 131.008 474.104 131.015 473.864 131.004 C 473.624 130.989 473.315 130.939 472.946 130.859 C 472.469 130.756 472.088 130.646 471.795 130.535 C 471.505 130.425 471.272 130.31 471.105 130.188 C 470.933 130.066 470.819 129.925 470.762 129.773 C 470.697 129.621 470.678 129.46 470.697 129.297 L 470.792 125.432 C 470.148 125.2 469.538 124.944 468.967 124.674 C 468.391 124.399 467.869 124.121 467.4 123.839 C 466.928 123.561 466.52 123.286 466.173 123.023 C 465.826 122.764 465.563 122.524 465.38 122.307 C 465.197 122.086 465.06 121.792 464.961 121.423 C 464.866 121.053 464.793 120.523 464.748 119.83 C 464.713 119.296 464.698 118.858 464.706 118.519 C 464.713 118.179 464.748 117.924 464.809 117.753 C 464.87 117.577 464.954 117.471 465.06 117.425 C 465.167 117.379 465.297 117.372 465.445 117.402 C 465.636 117.444 465.925 117.627 466.31 117.943 C 466.699 118.26 467.191 118.622 467.785 119.033 C 468.384 119.441 469.1 119.856 469.939 120.272 C 470.777 120.687 471.749 121.019 472.862 121.263 C 474.596 121.644 475.865 121.587 476.665 121.087 C 477.466 120.588 477.828 119.776 477.751 118.644 C 477.702 117.89 477.481 117.227 477.084 116.659 C 476.688 116.095 476.177 115.557 475.545 115.054 C 474.912 114.551 474.207 114.071 473.426 113.614 C 472.641 113.156 471.84 112.672 471.017 112.165 C 470.194 111.662 469.386 111.102 468.597 110.496 C 467.804 109.886 467.084 109.197 466.432 108.415 C 465.784 107.638 465.247 106.75 464.824 105.751 C 464.401 104.753 464.146 103.598 464.058 102.295 C 463.982 101.113 464.096 100.084 464.405 99.196 C 464.713 98.312 465.19 97.584 465.838 97.016 C 466.489 96.444 467.305 96.048 468.292 95.823 C 469.279 95.598 470.411 95.549 471.692 95.675 L 471.825 91.033 C 471.829 90.907 471.856 90.812 471.901 90.735 C 471.951 90.659 472.042 90.602 472.176 90.564 C 472.313 90.522 472.5 90.514 472.736 90.533 C 472.968 90.556 473.281 90.606 473.666 90.69 C 474.123 90.792 474.508 90.899 474.813 91.014 C 475.122 91.128 475.358 91.246 475.526 91.368 C 475.697 91.49 475.808 91.627 475.861 91.78 C 475.914 91.928 475.949 92.092 475.96 92.264 L 475.808 96.624 C 476.223 96.776 476.669 96.959 477.134 97.172 C 477.603 97.382 478.041 97.607 478.449 97.843 C 478.86 98.079 479.234 98.32 479.569 98.556 C 479.909 98.792 480.145 98.99 480.278 99.15 C 480.412 99.314 480.518 99.467 480.591 99.615 C 480.667 99.764 480.732 99.939 480.781 100.145 C 480.831 100.351 480.873 100.591 480.903 100.869 C 480.938 101.147 480.964 101.468 480.991 101.83 C 481.021 102.317 481.037 102.718 481.037 103.026 C 481.033 103.335 481.01 103.567 480.96 103.716 C 480.911 103.869 480.854 103.964 480.781 104.006 C 480.713 104.044 480.625 104.052 480.522 104.029 C 480.328 103.987 480.038 103.823 479.657 103.537 C 479.272 103.251 478.799 102.931 478.247 102.577 C 477.687 102.222 477.05 101.864 476.334 101.506 C 475.617 101.144 474.836 100.873 473.99 100.686 C 473.22 100.519 472.564 100.454 472.027 100.488 C 471.49 100.526 471.059 100.648 470.735 100.858 C 470.415 101.064 470.182 101.346 470.049 101.704 C 469.908 102.062 469.855 102.474 469.885 102.946 C 469.935 103.686 470.163 104.349 470.567 104.932 C 470.968 105.515 471.49 106.056 472.13 106.555 C 472.766 107.051 473.487 107.535 474.283 108.004 C 475.08 108.472 475.895 108.96 476.722 109.471 C 477.553 109.974 478.373 110.53 479.177 111.136 C 479.985 111.739 480.713 112.425 481.361 113.194 C 482.012 113.964 482.55 114.841 482.98 115.828 C 483.411 116.815 483.666 117.943 483.75 119.216 C 483.838 120.569 483.693 121.739 483.312 122.722 Z  M 489.821 95.789 C 485.995 91.33 480.088 88.22 472.099 86.467 C 463.822 84.649 458.01 85.331 454.667 88.513 C 451.454 91.559 450.124 97.325 450.681 105.82 C 451.256 114.601 453.543 121.312 457.545 125.962 C 461.367 130.398 467.286 133.497 475.297 135.257 C 483.285 137.01 488.952 136.458 492.299 133.596 C 495.797 130.596 497.261 124.704 496.685 115.927 C 496.11 107.15 493.823 100.435 489.821 95.789 Z " fill="rgb(107,165,58)"/></g><g><path d=" M 94.982 109.575 C 94.982 113.657 95.584 117.113 96.793 119.941 C 98.001 122.769 99.819 125.079 102.25 126.874 C 104.682 128.665 107.738 129.961 111.42 130.761 C 115.101 131.565 119.419 131.966 124.374 131.966 C 129.321 131.966 133.639 131.565 137.324 130.761 C 141.006 129.961 144.07 128.665 146.517 126.874 C 148.964 125.079 150.789 122.769 151.997 119.941 C 153.202 117.113 153.807 113.657 153.807 109.575 C 153.807 105.524 153.202 102.075 151.997 99.232 C 150.789 96.388 148.964 94.071 146.517 92.276 C 144.07 90.485 141.006 89.189 137.324 88.385 C 133.639 87.585 129.321 87.184 124.374 87.184 C 119.419 87.184 115.101 87.585 111.42 88.385 C 107.738 89.189 104.682 90.485 102.25 92.276 C 99.819 94.071 98.001 96.388 96.793 99.232 C 95.584 102.075 94.982 105.524 94.982 109.575 Z  M 165.668 109.575 C 165.668 115.185 164.856 120.079 163.229 124.248 C 161.601 128.421 159.097 131.889 155.713 134.656 C 152.329 137.423 148.049 139.489 142.869 140.853 C 137.694 142.218 131.55 142.9 124.45 142.9 C 117.342 142.9 111.203 142.218 106.023 140.853 C 100.844 139.489 96.575 137.423 93.21 134.656 C 89.845 131.889 87.349 128.421 85.725 124.248 C 84.094 120.079 83.282 115.185 83.282 109.575 C 83.282 103.965 84.094 99.071 85.725 94.902 C 87.349 90.733 89.845 87.261 93.21 84.494 C 96.575 81.727 100.844 79.661 106.023 78.297 C 111.203 76.932 117.342 76.25 124.45 76.25 C 131.55 76.25 137.694 76.932 142.869 78.297 C 148.049 79.661 152.329 81.727 155.713 84.494 C 159.097 87.261 161.601 90.733 163.229 94.902 C 164.856 99.071 165.668 103.965 165.668 109.575 Z " fill="rgb(66,152,204)"/></g><g><path d=" M 329.502 76.998 C 328.877 76.544 326.487 76.251 325.568 76.251 C 324.543 76.251 321.891 77.828 321.323 78.747 L 291.653 124.511 L 261.987 78.747 C 261.419 77.828 258.766 76.251 257.737 76.251 C 256.823 76.251 254.433 76.544 253.804 76.998 C 253.202 77.432 250.5 78.804 250.5 83.976 L 250.5 134.135 C 250.5 135.293 250.637 137.427 250.9 138.247 C 251.167 139.066 252.173 142.98 256.285 142.98 C 261.61 142.98 262.075 139.066 262.395 138.247 C 262.719 137.427 262.696 135.293 262.696 134.135 L 262.696 101.359 L 285.441 136.002 C 285.593 136.231 285.791 136.509 286.012 136.806 C 286.992 138.296 288.699 140.366 291.653 140.366 L 291.653 140.366 L 291.653 140.366 C 294.607 140.366 296.314 138.3 297.293 136.806 C 297.514 136.509 297.713 136.231 297.865 136.002 L 320.61 101.359 L 320.61 134.135 C 320.61 135.293 320.587 137.427 320.911 138.247 C 321.231 139.066 321.7 142.98 327.02 142.98 C 331.137 142.98 332.139 139.066 332.406 138.247 C 332.669 137.427 332.806 135.293 332.806 134.135 L 332.806 83.976 C 332.806 78.804 330.108 77.432 329.502 76.998 Z " fill="rgb(107,165,58)"/></g><g><path d=" M 73.39 88.58 C 73.39 88.58 72.304 91.362 70.428 91.842 C 69.205 92.158 66.19 91.834 65.249 91.533 C 65.196 91.514 65.15 91.499 65.108 91.48 C 64.384 91.179 53.747 87.25 40.991 87.25 C 28.239 87.25 17.781 88.82 16.272 95.108 C 14.759 101.393 27.755 101.877 28.662 101.999 C 29.569 102.121 42.321 102.178 46.372 102.239 C 50.42 102.3 62.814 103.813 67.044 105.867 C 71.275 107.921 78.889 111.184 78.889 122.065 C 78.889 132.945 69.823 138.083 65.592 139.592 C 61.362 141.105 55.679 142.797 42.565 142.797 C 29.447 142.797 11.314 138.628 8.112 136.753 C 4.907 134.878 4.305 132.4 4.907 129.74 C 5.513 127.084 8.714 125.872 10.044 125.994 C 11.375 126.116 16.089 127.808 17.057 128.048 C 18.025 128.292 32.469 131.737 42.988 131.737 C 53.503 131.737 65.653 130.769 66.861 122.972 C 68.069 115.174 53.564 114.45 45.343 114.088 C 37.123 113.726 24.916 113.726 17.118 111.428 C 9.32 109.129 4 104.114 4 95.653 C 4 87.189 10.83 80.237 22.012 77.821 C 33.193 75.405 49.273 76.129 56.163 77.638 C 63.054 79.151 75.265 80.18 73.39 88.58 Z " fill="rgb(66,152,204)"/></g><g><path d=" M 239.315 88.58 C 239.315 88.58 238.229 91.362 236.354 91.842 C 235.131 92.158 232.116 91.834 231.175 91.533 C 231.121 91.514 231.076 91.499 231.034 91.48 C 230.31 91.179 219.673 87.25 206.917 87.25 C 194.165 87.25 183.707 88.82 182.198 95.108 C 180.685 101.393 193.681 101.877 194.588 101.999 C 195.495 102.121 208.247 102.178 212.298 102.239 C 216.346 102.3 228.739 103.813 232.97 105.867 C 237.2 107.921 244.815 111.184 244.815 122.065 C 244.815 132.945 235.748 138.083 231.518 139.592 C 227.287 141.105 221.605 142.797 208.491 142.797 C 195.373 142.797 177.239 138.628 174.038 136.753 C 170.833 134.878 170.231 132.4 170.833 129.74 C 171.439 127.084 174.64 125.872 175.97 125.994 C 177.3 126.116 182.015 127.808 182.983 128.048 C 183.951 128.292 198.395 131.737 208.914 131.737 C 219.429 131.737 231.579 130.769 232.787 122.972 C 233.995 115.174 219.49 114.45 211.269 114.088 C 203.048 113.726 190.841 113.726 183.044 111.428 C 175.246 109.129 169.926 104.114 169.926 95.653 C 169.926 87.189 176.755 80.237 187.937 77.821 C 199.119 75.405 215.198 76.129 222.089 77.638 C 228.98 79.151 241.191 80.18 239.315 88.58 Z " fill="rgb(66,152,204)"/></g><g><path d=" M 398.075 132.065 C 397.45 131.764 395.815 131.783 394.927 131.783 L 353.504 131.783 L 353.477 114.366 L 393.559 114.366 C 394.443 114.366 396.078 114.389 396.707 114.084 C 397.336 113.786 400.332 113.352 400.332 108.378 C 400.332 104.533 397.336 103.595 396.707 103.348 C 396.078 103.1 394.443 102.974 393.559 102.974 L 353.462 102.974 L 353.443 90.744 L 353.504 87.684 L 394.927 87.684 C 395.815 87.684 397.45 87.703 398.075 87.402 C 398.704 87.101 401.7 86.666 401.7 81.693 C 401.7 77.847 398.704 76.91 398.075 76.662 C 397.45 76.414 395.815 76.288 394.927 76.288 L 349.353 76.288 C 349.353 76.288 344.761 75.919 343.13 77.474 C 341.495 79.029 341.369 80.519 341.369 82.462 L 341.369 89.78 L 341.369 90.816 L 341.369 137.004 C 341.369 138.948 341.495 140.438 343.13 141.989 C 344.761 143.544 349.353 143.178 349.353 143.178 L 394.927 143.178 C 395.815 143.178 397.45 143.048 398.075 142.805 C 398.704 142.557 401.7 141.615 401.7 137.774 C 401.7 132.8 398.704 132.362 398.075 132.065 Z " fill="rgb(107,165,58)"/></g></g></g></g></svg>