<?xml version="1.0" encoding="UTF-8" standalone="no"?><!-- Generator: Gravit.io --><svg xmlns="http://www.w3.org/2000/svg" xmlns:xlink="http://www.w3.org/1999/xlink" style="isolation:isolate" viewBox="0 0 400 680" width="400pt" height="680pt"><defs><clipPath id="_clipPath_hTMpErohIBt3w41fWUJ87XKp7cSuTPaV"><rect width="400" height="680"/></clipPath></defs><g clip-path="url(#_clipPath_hTMpErohIBt3w41fWUJ87XKp7cSuTPaV)"><clipPath id="_clipPath_jaPzdvafdMdRHuLGvUBw6xrF8zdxv4Yt"><rect x="-556.444" y="0" width="1208.889" height="680" transform="matrix(1,0,0,1,0,0)" fill="rgb(255,255,255)"/></clipPath><g clip-path="url(#_clipPath_jaPzdvafdMdRHuLGvUBw6xrF8zdxv4Yt)"><g><g><path d=" M -556.444 680 L 653.073 282.371 L 653.073 680 L -556.444 680 Z " fill="rgb(62,179,213)"/><g><linearGradient id="_lgradient_0" x1="-0.000015515609373295547" y1="0.4993210237118255" x2="0.9998699475551334" y2="0.4993210237118255" gradientTransform="matrix(94.408,0,0,83.793,455.393,553.386)" gradientUnits="userSpaceOnUse"><stop offset="0%" stop-opacity="1" style="stop-color:rgb(147,253,147)"/><stop offset="51%" stop-opacity="1" style="stop-color:rgb(33,194,193)"/><stop offset="100%" stop-opacity="1" style="stop-color:rgb(132,245,153)"/></linearGradient><path d=" M 539.18 636.873 C 539.18 636.873 546.363 597.767 508.485 576.833 C 470.608 555.899 468.827 556.145 461.338 553.75 C 457.041 552.277 452.621 555.347 457.593 561.608 C 462.566 567.871 459.742 569.467 469.687 572.229 C 479.632 574.992 481.167 587.147 486.14 590.155 C 491.112 593.163 495.471 593.961 510.695 600.53 C 524.508 606.484 536.295 623.306 536.295 629.26 C 536.295 635.215 549.801 637.18 549.801 637.18 L 539.18 636.873 Z " fill="url(#_lgradient_0)"/><linearGradient id="_lgradient_1" x1="0.33670440574156046" y1="0.14587883157376513" x2="0.9689342770620026" y2="0.8524312300715007" gradientTransform="matrix(84.847,0,0,77.341,462.191,554.191)" gradientUnits="userSpaceOnUse"><stop offset="0%" stop-opacity="1" style="stop-color:rgb(147,253,147)"/><stop offset="51%" stop-opacity="1" style="stop-color:rgb(33,194,193)"/><stop offset="100%" stop-opacity="1" style="stop-color:rgb(132,245,153)"/></linearGradient><path d=" M 537.83 631.409 C 537.83 631.409 547.468 595.434 514.318 575.974 C 481.167 556.513 469.564 556.759 462.995 554.426 C 459.251 553.075 469.564 557.741 473.861 563.512 C 478.159 569.282 477.115 567.993 484.912 572.291 C 493.936 577.263 497.681 582.113 502.96 583.095 C 510.634 584.568 508.362 592.549 521.684 598.566 C 533.716 604.029 535.251 618.64 535.251 624.165 C 535.251 629.69 547.038 631.532 547.038 631.532 L 537.83 631.409 Z " fill="url(#_lgradient_1)"/><linearGradient id="_lgradient_2" x1="-0.14581688968733886" y1="1.1967607547394792" x2="0.7657852959399597" y2="0.7298300636906876" gradientTransform="matrix(80.899,0,0,53.554,564.35,575.768)" gradientUnits="userSpaceOnUse"><stop offset="0%" stop-opacity="1" style="stop-color:rgb(147,253,147)"/><stop offset="51%" stop-opacity="1" style="stop-color:rgb(33,194,193)"/><stop offset="100%" stop-opacity="1" style="stop-color:rgb(132,245,153)"/></linearGradient><path d=" M 571.226 626.13 L 574.971 622.569 C 576.751 620.911 578.961 619.683 581.355 619.069 C 593.081 616 629.915 604.459 645.201 576.588 C 645.324 576.342 645.201 576.035 644.956 575.912 C 644.956 575.912 644.894 575.912 644.894 575.912 C 644.833 575.912 644.771 575.851 644.71 575.851 C 639.615 575.483 613.401 575.053 578.347 604.95 C 577.733 605.441 577.119 606.055 576.628 606.669 C 575.769 607.897 574.295 609.984 573.62 611.089 C 572.699 612.685 574.541 615.386 572.085 617.781 C 569.63 620.174 564.35 626.13 564.35 626.13 L 568.648 629.322 L 571.226 626.13 Z " fill="url(#_lgradient_2)"/><linearGradient id="_lgradient_3" x1="1.402170654064328" y1="0.8670782982164154" x2="1.0142470903844167" y2="-0.6167064973187437" gradientTransform="matrix(44.78,0,0,135.299,508.298,493.532)" gradientUnits="userSpaceOnUse"><stop offset="0%" stop-opacity="1" style="stop-color:rgb(147,253,147)"/><stop offset="51%" stop-opacity="1" style="stop-color:rgb(33,194,193)"/><stop offset="100%" stop-opacity="1" style="stop-color:rgb(132,245,153)"/></linearGradient><path d=" M 551.274 623.797 C 551.274 623.797 561.342 533.799 533.901 505.498 C 508.608 479.469 508.24 503.411 508.301 507.463 C 508.301 507.831 508.424 508.138 508.547 508.445 C 514.501 519.557 516.589 532.387 514.44 544.788 C 511.862 557.802 530.463 556.083 532.059 568.914 C 533.655 581.744 540.163 601.512 539.488 610.598 C 538.812 619.683 538.751 628.523 538.751 628.523 L 548.88 628.831 L 551.274 623.797 Z " fill="url(#_lgradient_3)"/><linearGradient id="_lgradient_4" x1="0.00009473850174046561" y1="0.4999739623887267" x2="1.0001424136768442" y2="0.4999739623887267" gradientTransform="matrix(44.567,0,0,135.342,508.535,493.493)" gradientUnits="userSpaceOnUse"><stop offset="0%" stop-opacity="1" style="stop-color:rgb(147,253,147)"/><stop offset="51%" stop-opacity="1" style="stop-color:rgb(33,194,193)"/><stop offset="100%" stop-opacity="1" style="stop-color:rgb(132,245,153)"/></linearGradient><path d=" M 551.152 624.103 C 551.213 623.92 551.274 623.674 551.335 623.489 C 551.949 617.596 560.422 532.817 533.901 505.498 C 508.793 479.591 508.424 503.043 508.547 507.278 C 508.608 507.769 508.854 508.26 509.099 508.69 C 510.941 511.391 519.229 523.178 526.595 521.828 C 546.915 518.206 528.99 542.639 540.04 555.715 C 548.88 566.029 545.933 601.635 545.258 610.782 C 544.828 615.939 543.969 620.973 542.68 626.007 C 542.434 627.296 543.294 628.523 544.522 628.769 C 544.583 628.769 544.644 628.769 544.705 628.769 C 544.89 628.769 545.013 628.831 545.197 628.831 L 547.038 628.831 C 548.143 628.892 549.125 628.34 549.617 627.357 L 551.152 624.103 Z " fill="url(#_lgradient_4)"/><linearGradient id="_lgradient_5" x1="-0.052438288041090075" y1="1.050490313961257" x2="0.4583205776023439" y2="0.2505007903137638" gradientTransform="matrix(84.856,0,0,91.901,553.708,537.421)" gradientUnits="userSpaceOnUse"><stop offset="0%" stop-opacity="1" style="stop-color:rgb(147,253,147)"/><stop offset="51%" stop-opacity="1" style="stop-color:rgb(33,194,193)"/><stop offset="100%" stop-opacity="1" style="stop-color:rgb(132,245,153)"/></linearGradient><path d=" M 561.035 629.322 C 561.035 629.322 562.815 604.397 577.365 589.173 C 581.417 584.998 586.573 582.113 592.222 580.824 C 596.58 579.842 603.701 576.342 609.902 564.678 C 609.902 564.678 621.627 548.103 633.353 543.069 C 645.078 538.035 633.353 537.421 633.353 537.421 C 633.353 537.421 599.834 543.805 578.347 563.451 C 576.997 564.678 575.585 565.844 574.05 566.827 C 568.463 570.633 553.055 584.998 553.73 626.927 L 561.035 629.322 Z " fill="url(#_lgradient_5)"/><linearGradient id="_lgradient_6" x1="0.001182617351041415" y1="0.4999260389348059" x2="1.0004528823211007" y2="0.4999260389348059" gradientTransform="matrix(68.785,0,0,55.958,521.369,624.042)" gradientUnits="userSpaceOnUse"><stop offset="0%" stop-opacity="1" style="stop-color:rgb(248,197,71)"/><stop offset="100%" stop-opacity="1" style="stop-color:rgb(247,29,105)"/></linearGradient><path d=" M 590.134 627.296 C 590.134 627.296 590.626 624.288 586.635 624.349 C 583.135 624.472 523.956 624.042 523.956 624.042 C 523.956 624.042 521.193 624.042 521.378 626.13 C 521.561 628.217 530.524 677.513 531.384 678.556 C 531.752 679.17 532.366 679.661 533.103 679.846 C 534.208 680.152 575.769 679.907 575.769 679.907 C 576.751 679.784 577.488 678.986 577.549 678.004 C 577.488 678.065 590.257 627.909 590.134 627.296 Z " fill="url(#_lgradient_6)"/></g><g><path d=" M 333.376 540.477 C 333.376 540.477 330.825 556.636 326.573 559.187 C 326.573 559.187 348.685 567.692 348.685 567.692 L 352.937 542.178 L 333.376 540.477 Z " fill="rgb(251,190,190)"/><path d=" M 364.844 355.927 L 374.198 366.983 L 369.946 405.254 L 366.544 480.945 C 366.544 480.945 373.348 546.43 366.544 548.131 C 366.544 548.131 329.124 548.982 329.975 544.729 C 329.975 544.729 331.675 537.075 333.376 531.122 C 333.376 531.122 331.675 503.907 331.675 503.907 L 335.928 480.094 L 320.62 377.188 L 364.844 355.927 Z " fill="rgb(47,46,65)"/><path d=" M 334.227 556.636 C 334.227 556.636 324.871 554.935 324.021 556.636 C 324.021 556.636 307.012 576.197 304.461 576.197 C 304.461 576.197 283.199 593.206 302.76 594.056 C 302.76 594.056 354.638 579.599 354.638 579.599 C 354.638 579.599 349.882 557.957 350.133 558.997 C 350.385 560.038 334.227 560.888 334.227 556.636 Z " fill="rgb(47,46,65)"/><path d=" M 324.021 517.515 C 324.021 517.515 347.834 543.879 348.685 546.43 C 348.685 546.43 362.292 546.43 362.292 546.43 L 367.395 529.421 L 363.142 523.468 L 339.33 503.907 L 324.021 517.515 Z " fill="rgb(251,190,190)"/><path d=" M 358.04 537.075 L 345.708 548.683 C 345.708 548.683 361.442 572.795 361.442 575.346 C 361.442 575.346 362.292 599.159 370.797 595.757 C 370.797 595.757 380.152 558.337 380.152 558.337 C 380.152 558.337 379.301 523.468 374.198 520.917 C 374.198 520.917 357.912 519.171 357.912 519.171 C 357.912 519.171 364.844 536.225 358.04 537.075 Z " fill="rgb(47,46,65)"/><path d=" M 287.451 280.236 C 287.451 280.236 283.199 293.843 282.349 297.245 C 282.349 297.245 276.396 310.002 276.396 324.46 C 276.396 324.46 278.096 355.927 276.396 357.628 C 276.396 357.628 247.48 454.581 259.386 464.786 C 259.386 464.786 310.414 509.01 312.965 513.262 C 312.965 513.262 316.367 527.72 321.47 526.019 C 321.47 526.019 346.133 507.309 346.984 503.907 C 346.984 503.907 335.928 494.552 335.928 494.552 C 335.928 494.552 312.114 459.683 306.161 460.534 C 306.161 460.534 301.059 456.281 301.909 453.73 C 301.909 453.73 304.461 449.477 301.909 449.477 C 301.909 449.477 301.059 442.674 301.909 439.272 C 301.909 439.272 322.32 389.945 322.32 389.945 L 374.198 366.983 C 374.198 366.983 371.647 304.899 352.937 287.89 L 348.685 277.684 C 348.685 277.684 301.059 274.282 287.451 280.236 Z " fill="rgb(47,46,65)"/><path d=" M 308.713 145.863 C 308.713 145.863 312.965 175.629 302.76 177.33 C 302.76 177.33 284.049 178.181 284.049 179.031 C 284.049 179.031 309.563 206.246 309.563 206.246 L 333.376 204.545 L 354.638 181.583 C 354.638 181.583 335.077 178.181 335.077 166.274 C 335.077 166.274 334.227 145.863 334.227 145.863 L 308.713 145.863 Z " fill="rgb(251,190,190)"/><g style="opacity:0.1;"><g opacity="0.1"><path d=" M 308.713 145.863 C 308.713 145.863 312.965 175.629 302.76 177.33 C 302.76 177.33 284.049 178.181 284.049 179.031 C 284.049 179.031 309.563 206.246 309.563 206.246 L 333.376 204.545 L 354.638 181.583 C 354.638 181.583 335.077 178.181 335.077 166.274 C 335.077 166.274 334.227 145.863 334.227 145.863 L 308.713 145.863 Z " fill="rgb(0,0,0)"/></g></g><circle vector-effect="non-scaling-stroke" cx="321.8951210825611" cy="131.83041504391173" r="26.364302402083183" fill="rgb(251,190,190)"/><path d=" M 298.508 174.779 C 298.508 174.779 265.339 179.031 262.788 190.087 C 262.788 190.087 279.798 270.031 282.349 275.984 C 282.349 275.984 284.049 286.189 284.049 286.189 C 291.835 280.367 301.759 278.196 311.265 280.236 C 327.423 283.638 350.385 281.937 350.385 281.937 C 350.385 281.937 358.04 250.47 359.741 247.068 C 361.442 243.666 368.245 224.956 368.245 219.853 C 368.245 214.75 378.451 193.489 378.451 193.489 C 378.451 193.489 373.348 178.181 354.638 179.031 C 354.638 179.031 346.477 175.378 344.179 178.055 C 341.881 180.732 329.124 192.638 312.965 187.536 C 296.806 182.433 298.508 174.779 298.508 174.779 Z " fill="rgb(109,176,73)"/><path d=" M 272.143 189.236 L 262.788 189.236 L 257.686 256.423 C 257.686 256.423 276.396 261.525 278.947 258.124 C 281.498 254.722 272.143 189.236 272.143 189.236 Z " fill="rgb(109,176,73)"/><path d=" M 260.237 249.619 L 257.686 256.423 C 257.686 256.423 255.984 278.535 266.19 277.684 C 266.19 277.684 282.349 264.077 282.349 264.077 C 282.349 264.077 276.396 247.919 269.592 249.619 C 262.788 251.32 260.237 249.619 260.237 249.619 Z " fill="rgb(109,176,73)"/><path d=" M 362.292 189.236 L 378.451 193.489 C 378.451 193.489 390.357 236.862 391.208 237.713 C 391.208 237.713 392.909 243.666 392.909 243.666 C 392.909 243.666 392.909 244.517 394.61 247.068 C 394.61 247.068 398.862 247.919 397.161 251.32 C 397.161 251.32 392.909 253.021 394.61 256.423 C 394.61 256.423 395.46 269.18 395.46 269.18 C 395.46 269.18 391.208 253.021 375.899 257.274 L 365.694 211.348 L 362.292 189.236 Z " fill="rgb(109,176,73)"/><path d=" M 291.865 110.108 C 286.504 119.527 285.297 130.685 284.557 141.497 C 284.24 146.135 284.001 150.895 285.377 155.335 C 286.827 160.017 290.054 164.774 288.399 169.387 C 286.798 173.85 281.446 175.635 278.456 179.315 C 275.923 182.433 275.287 186.705 275.507 190.716 C 275.727 194.727 276.7 198.666 276.985 202.673 C 277.574 211.475 274.857 220.18 269.366 227.085 C 282.176 226.591 295.871 220.911 301.273 209.285 C 302.888 205.81 303.674 202.007 305.131 198.462 C 306.78 194.452 309.267 190.823 310.829 186.779 C 313.184 180.677 313.312 173.976 313.41 167.436 C 313.468 163.521 313.51 159.502 312.155 155.828 C 309.172 147.741 299.897 142.516 298.977 133.946 C 298.817 133.039 298.951 132.106 299.359 131.282 C 299.792 130.679 300.317 130.148 300.915 129.709 C 306.706 124.597 305.751 113.775 312.645 110.29 C 315.739 108.726 319.468 109.277 322.791 110.266 C 326.48 111.366 330.16 113.068 332.56 116.077 C 337.393 122.137 335.486 130.892 333.99 138.498 C 331.823 149.53 331.054 160.792 331.703 172.016 C 331.745 173.811 332.01 175.594 332.491 177.324 C 333.379 180.132 335.272 182.49 336.702 185.064 C 339.614 190.356 340.559 196.507 339.369 202.429 C 338.314 207.583 335.694 213.07 338 217.798 C 339.016 219.624 340.43 221.196 342.138 222.4 C 349.676 228.307 359.243 231.967 364.847 239.732 C 365.812 233.389 363.971 227.007 362.611 220.736 C 361.253 214.466 360.425 207.64 363.218 201.864 C 364.444 199.33 366.317 197.126 367.319 194.495 C 369.632 188.421 366.875 181.758 365.2 175.477 C 364.003 170.545 363.139 165.538 362.614 160.489 L 360.887 146.864 C 359.459 135.599 357.965 124.105 353.019 113.885 C 343.697 94.624 322.602 87.471 303.715 98.144 C 298.766 101 294.674 105.131 291.865 110.108 L 291.865 110.108 Z " fill="rgb(68,25,5)"/><path d=" M 268.741 253.872 C 268.741 253.872 263.639 269.18 269.592 269.18 C 269.592 269.18 286.601 259.825 287.451 252.17 C 287.451 252.17 303.61 215.601 292.554 218.152 C 292.554 218.152 276.396 241.965 276.396 241.965 L 268.741 253.872 Z " fill="rgb(251,190,190)"/><path d=" M 354.638 189.236 L 326.572 280.236 L 364.843 288.741 L 392.909 200.293 L 354.638 189.236 L 354.638 189.236 Z " fill="rgb(81,79,128)"/><path d=" M 390.357 254.722 L 395.67 263.601 C 395.67 263.601 398.011 280.236 386.105 280.236 C 386.105 280.236 357.189 264.077 357.189 264.077 C 357.189 264.077 348.685 260.675 343.582 261.525 C 343.582 261.525 310.414 261.525 322.32 247.068 C 322.32 247.068 354.638 247.068 354.638 247.068 L 375.899 257.274 L 386.955 251.32 L 390.357 254.722 Z " fill="rgb(251,190,190)"/><path d=" M 383.129 243.241 L 374.624 256.848 C 374.624 256.848 394.184 259.4 395.886 263.652 C 395.886 263.652 388.231 241.54 388.231 241.54 L 383.129 243.241 Z " fill="rgb(109,176,73)"/></g></g></g></g></g></svg>