<?xml version="1.0" encoding="UTF-8" standalone="no"?><!-- Generator: Gravit.io --><svg xmlns="http://www.w3.org/2000/svg" xmlns:xlink="http://www.w3.org/1999/xlink" style="isolation:isolate" viewBox="0 0 565.57 319.52" width="565.57pt" height="319.52pt"><defs><clipPath id="_clipPath_qCcVPfuRbgjIFegcqXThoMXv6zzNWOVL"><rect width="565.57" height="319.52"/></clipPath></defs><g clip-path="url(#_clipPath_qCcVPfuRbgjIFegcqXThoMXv6zzNWOVL)"><path d=" M 1.58 321.52 C 1.58 321.52 -10.36 223.02 31.43 193.17 C 67.82 167.17 98.09 151.38 159.78 149.39 C 221.47 147.4 255.29 147.39 292.11 106.61 C 328.93 65.83 378.71 4.21 434.38 2.14 C 488.11 0.14 520.94 17.06 551.78 136.46 C 582.62 255.86 550.78 317.54 549.78 318.53 C 549.09 319.24 1.58 321.52 1.58 321.52 L 1.58 321.52 Z " fill="rgb(255,255,255)"/><path d=" M 251.99 243.61 C 255.38 202.61 242.75 142.61 257.49 134.26 C 272.04 126.03 277 123.34 292.1 106.61 C 328.91 65.82 378.66 4.2 434.38 2.14 C 488.11 0.14 520.94 17.06 551.78 136.46 C 567.2 196.16 566.29 227.7 564.78 246.55 C 563.96 256.92 563.14 270.42 562.64 270.91 C 561.95 271.62 249.18 277.66 251.99 243.61 L 251.99 243.61 Z " fill="rgb(244,244,244)"/><path d=" M 457.87 118.83 L 457.26 264.64 L 549.86 264.89 C 549.86 264.89 550.53 188.1 546.86 114.56 L 458.06 113.23 L 457.87 118.83 Z " fill="rgb(221,221,221)"/><path d=" M 368.28 264.98 L 447.43 264.98 L 446.87 137.68 L 370.74 137.68 L 368.28 264.98 Z " fill="rgb(221,221,221)"/><path d=" M 369.56 212.97 L 368.28 264.98 L 256.23 264.94 L 255.8 212.38 L 369.56 212.97 Z " fill="rgb(221,221,221)"/><path d=" M 246.43 139 L 246.71 265.25 C 246.71 265.25 247.4 273.19 254.99 273.53 C 262.58 273.87 561.74 274 561.74 274 C 561.74 274 564.41 265.63 563.38 265.28 C 562.35 264.93 256.23 264.94 256.23 264.94 C 256.23 264.94 256.32 260.47 256.32 257.61 C 256.32 254.43 256.15 135.02 256.15 135.02 C 253.051 136.668 249.795 138.001 246.43 139 L 246.43 139 Z " fill="rgb(255,255,255)"/><path d=" M 555.72 153.35 L 557.32 159.91 L 253.03 161.37 L 253.03 151.54 L 555.72 153.35 Z " fill="rgb(255,255,255)"/><path d=" M 338.44 265.2 L 346.43 265.82 L 346.43 47.7 L 338.44 53.23 L 338.44 265.2 Z " fill="rgb(255,255,255)"/><path d=" M 482.82 265.2 L 490.2 264.59 L 491.35 15.55 L 483 10.58 L 482.82 265.2 Z " fill="rgb(255,255,255)"/><path d=" M 519.18 48.75 L 514.21 39.8 L 356.26 39.72 L 346.43 47.7 L 519.18 48.75 Z " fill="rgb(255,255,255)"/><circle vector-effect="non-scaling-stroke" cx="375.54999" cy="71.889999" r="17.559999000000005" fill="rgb(255,255,255)"/><circle vector-effect="non-scaling-stroke" cx="392.64001" cy="77.540001" r="11.509999999999991" fill="rgb(255,255,255)"/><circle vector-effect="non-scaling-stroke" cx="508.7600100000001" cy="88.089996" r="17.889999000000017" fill="rgb(255,255,255)"/><circle vector-effect="non-scaling-stroke" cx="490.32999" cy="90.370003" r="11.720000000000027" fill="rgb(255,255,255)"/></g></svg>