<?xml version="1.0" encoding="UTF-8" standalone="no"?><!-- Generator: Gravit.io --><svg xmlns="http://www.w3.org/2000/svg" xmlns:xlink="http://www.w3.org/1999/xlink" style="isolation:isolate" viewBox="0 0 1920 1080" width="1920pt" height="1080pt"><defs><clipPath id="_clipPath_c883T7iL1MUPaTAc8apfplWWSq6r7s0E"><rect width="1920" height="1080"/></clipPath></defs><g clip-path="url(#_clipPath_c883T7iL1MUPaTAc8apfplWWSq6r7s0E)"><g><path d=" M 0 1080 L 1920.999 448.472 L 1920.999 1080 L 0 1080 Z " fill="rgb(62,179,213)"/><g><linearGradient id="_lgradient_7" x1="-0.000012753971977958885" y1="0.4993146993793889" x2="0.9998699479142871" y2="0.4993146993793889" gradientTransform="matrix(149.943,0,0,133.084,1607.035,878.908)" gradientUnits="userSpaceOnUse"><stop offset="0%" stop-opacity="1" style="stop-color:rgb(147,253,147)"/><stop offset="51%" stop-opacity="1" style="stop-color:rgb(33,194,193)"/><stop offset="100%" stop-opacity="1" style="stop-color:rgb(132,245,153)"/></linearGradient><path d=" M 1740.11 1011.504 C 1740.11 1011.504 1751.518 949.395 1691.359 916.147 C 1631.201 882.899 1628.373 883.289 1616.478 879.486 C 1609.653 877.146 1602.633 882.021 1610.53 891.966 C 1618.428 901.912 1613.943 904.447 1629.738 908.834 C 1645.533 913.222 1647.971 932.527 1655.869 937.305 C 1663.766 942.082 1670.689 943.35 1694.869 953.783 C 1716.807 963.24 1735.528 989.956 1735.528 999.413 C 1735.528 1008.871 1756.978 1011.991 1756.978 1011.991 L 1740.11 1011.504 Z " fill="url(#_lgradient_7)"/><linearGradient id="_lgradient_8" x1="0.33669832415553247" y1="0.1458787317695619" x2="0.9689269190182064" y2="0.9210054410276003" gradientTransform="matrix(134.757,0,0,122.835,1617.834,880.186)" gradientUnits="userSpaceOnUse"><stop offset="0%" stop-opacity="1" style="stop-color:rgb(147,253,147)"/><stop offset="51%" stop-opacity="1" style="stop-color:rgb(33,194,193)"/><stop offset="100%" stop-opacity="1" style="stop-color:rgb(132,245,153)"/></linearGradient><path d=" M 1737.965 1002.826 C 1737.965 1002.826 1753.273 945.69 1700.622 914.782 C 1647.971 883.874 1629.543 884.264 1619.11 880.559 C 1613.163 878.414 1629.543 885.824 1636.368 894.989 C 1643.193 904.154 1641.536 902.107 1653.919 908.932 C 1668.251 916.829 1674.199 924.532 1682.584 926.092 C 1694.772 928.432 1691.164 941.107 1712.322 950.663 C 1731.432 959.34 1733.87 982.546 1733.87 991.321 C 1733.87 1000.096 1752.59 1003.021 1752.59 1003.021 L 1737.965 1002.826 Z " fill="url(#_lgradient_8)"/><linearGradient id="_lgradient_9" x1="-0.1458174565000292" y1="1.196773528191866" x2="0.7657882726652585" y2="0.49142305349018034" gradientTransform="matrix(128.486,0,0,85.056,1780.086,914.454)" gradientUnits="userSpaceOnUse"><stop offset="0%" stop-opacity="1" style="stop-color:rgb(147,253,147)"/><stop offset="51%" stop-opacity="1" style="stop-color:rgb(33,194,193)"/><stop offset="100%" stop-opacity="1" style="stop-color:rgb(132,245,153)"/></linearGradient><path d=" M 1791.006 994.441 L 1796.954 988.786 C 1799.781 986.153 1803.291 984.203 1807.094 983.228 C 1825.717 978.353 1884.218 960.023 1908.496 915.757 C 1908.691 915.367 1908.496 914.879 1908.106 914.684 C 1908.106 914.684 1908.008 914.684 1908.008 914.684 C 1907.911 914.684 1907.813 914.587 1907.716 914.587 C 1899.623 914.002 1857.99 913.319 1802.316 960.803 C 1801.341 961.583 1800.366 962.558 1799.586 963.533 C 1798.221 965.483 1795.881 968.798 1794.809 970.553 C 1793.346 973.088 1796.271 977.378 1792.371 981.181 C 1788.471 984.983 1780.086 994.441 1780.086 994.441 L 1786.911 999.511 L 1791.006 994.441 Z " fill="url(#_lgradient_9)"/><linearGradient id="_lgradient_10" x1="1.4021731189993778" y1="0.8670782075619474" x2="0.4515161216763275" y2="-0.3364002965671147" gradientTransform="matrix(71.121,0,0,214.886,1691.061,783.845)" gradientUnits="userSpaceOnUse"><stop offset="0%" stop-opacity="1" style="stop-color:rgb(147,253,147)"/><stop offset="51%" stop-opacity="1" style="stop-color:rgb(33,194,193)"/><stop offset="100%" stop-opacity="1" style="stop-color:rgb(132,245,153)"/></linearGradient><path d=" M 1759.318 990.736 C 1759.318 990.736 1775.308 847.798 1731.725 802.85 C 1691.554 761.509 1690.969 799.535 1691.067 805.97 C 1691.067 806.555 1691.262 807.042 1691.457 807.53 C 1700.914 825.178 1704.229 845.556 1700.817 865.251 C 1696.722 885.921 1726.265 883.191 1728.8 903.569 C 1731.335 923.947 1741.67 955.343 1740.598 969.773 C 1739.525 984.203 1739.428 998.243 1739.428 998.243 L 1755.515 998.731 L 1759.318 990.736 Z " fill="url(#_lgradient_10)"/><linearGradient id="_lgradient_11" x1="0.00009893643096448024" y1="0.4999756092694342" x2="1.0001342189591176" y2="0.4999756092694342" gradientTransform="matrix(70.783,0,0,214.955,1691.438,783.783)" gradientUnits="userSpaceOnUse"><stop offset="0%" stop-opacity="1" style="stop-color:rgb(147,253,147)"/><stop offset="51%" stop-opacity="1" style="stop-color:rgb(33,194,193)"/><stop offset="100%" stop-opacity="1" style="stop-color:rgb(132,245,153)"/></linearGradient><path d=" M 1759.123 991.223 C 1759.22 990.931 1759.318 990.541 1759.415 990.248 C 1760.39 980.888 1773.846 846.238 1731.725 802.85 C 1691.847 761.704 1691.262 798.95 1691.457 805.677 C 1691.554 806.457 1691.944 807.237 1692.334 807.92 C 1695.259 812.21 1708.422 830.93 1720.122 828.785 C 1752.395 823.033 1723.925 861.838 1741.475 882.606 C 1755.515 898.987 1750.835 955.538 1749.763 970.065 C 1749.08 978.256 1747.715 986.251 1745.668 994.246 C 1745.278 996.293 1746.643 998.243 1748.593 998.633 C 1748.69 998.633 1748.788 998.633 1748.885 998.633 C 1749.178 998.633 1749.373 998.731 1749.665 998.731 L 1752.59 998.731 C 1754.345 998.828 1755.905 997.951 1756.685 996.391 L 1759.123 991.223 Z " fill="url(#_lgradient_11)"/><linearGradient id="_lgradient_12" x1="-0.05243927096995615" y1="1.0504903139612563" x2="0.48737224560563575" y2="0.26981018028718773" gradientTransform="matrix(134.771,0,0,145.96,1763.184,853.551)" gradientUnits="userSpaceOnUse"><stop offset="0%" stop-opacity="1" style="stop-color:rgb(147,253,147)"/><stop offset="51%" stop-opacity="1" style="stop-color:rgb(33,194,193)"/><stop offset="100%" stop-opacity="1" style="stop-color:rgb(132,245,153)"/></linearGradient><path d=" M 1774.821 999.511 C 1774.821 999.511 1777.648 959.925 1800.756 935.745 C 1807.191 929.115 1815.381 924.532 1824.352 922.485 C 1831.274 920.925 1842.584 915.367 1852.432 896.842 C 1852.432 896.842 1871.055 870.516 1889.678 862.521 C 1908.301 854.526 1889.678 853.551 1889.678 853.551 C 1889.678 853.551 1836.442 863.691 1802.316 894.892 C 1800.171 896.842 1797.929 898.694 1795.491 900.254 C 1786.618 906.299 1762.146 929.115 1763.218 995.708 L 1774.821 999.511 Z " fill="url(#_lgradient_12)"/><linearGradient id="_lgradient_13" x1="0.0011821978856828563" y1="0.49992496397180064" x2="1.0004568252360262" y2="0.49992496397180064" gradientTransform="matrix(109.246,0,0,88.874,1711.821,991.126)" gradientUnits="userSpaceOnUse"><stop offset="0%" stop-opacity="1" style="stop-color:rgb(248,197,71)"/><stop offset="100%" stop-opacity="1" style="stop-color:rgb(247,29,105)"/></linearGradient><path d=" M 1821.037 996.293 C 1821.037 996.293 1821.817 991.516 1815.479 991.613 C 1809.921 991.808 1715.93 991.126 1715.93 991.126 C 1715.93 991.126 1711.542 991.126 1711.835 994.441 C 1712.127 997.756 1726.362 1076.05 1727.727 1077.707 C 1728.312 1078.682 1729.287 1079.462 1730.457 1079.755 C 1732.212 1080.242 1798.221 1079.852 1798.221 1079.852 C 1799.781 1079.657 1800.951 1078.39 1801.049 1076.83 C 1800.951 1076.927 1821.232 997.268 1821.037 996.293 Z " fill="url(#_lgradient_13)"/></g><g><path d=" M 1413.245 858.405 C 1413.245 858.405 1409.193 884.069 1402.439 888.121 C 1402.439 888.121 1437.558 901.628 1437.558 901.628 L 1444.312 861.106 L 1413.245 858.405 Z " fill="rgb(251,190,190)"/><path d=" M 1463.222 565.296 L 1478.08 582.855 L 1471.326 643.638 L 1465.923 763.854 C 1465.923 763.854 1476.729 867.86 1465.923 870.561 C 1465.923 870.561 1406.491 871.912 1407.842 865.158 C 1407.842 865.158 1410.543 853.002 1413.245 843.547 C 1413.245 843.547 1410.543 800.323 1410.543 800.323 L 1417.297 762.503 L 1392.984 599.064 L 1463.222 565.296 Z " fill="rgb(47,46,65)"/><path d=" M 1414.596 884.069 C 1414.596 884.069 1399.737 881.367 1398.387 884.069 C 1398.387 884.069 1371.372 915.136 1367.32 915.136 C 1367.32 915.136 1333.552 942.15 1364.618 943.501 C 1364.618 943.501 1447.013 920.539 1447.013 920.539 C 1447.013 920.539 1439.459 886.167 1439.859 887.819 C 1440.259 889.472 1414.596 890.822 1414.596 884.069 Z " fill="rgb(47,46,65)"/><path d=" M 1398.387 821.935 C 1398.387 821.935 1436.207 863.808 1437.558 867.86 C 1437.558 867.86 1459.17 867.86 1459.17 867.86 L 1467.274 840.845 L 1460.52 831.39 L 1422.7 800.323 L 1398.387 821.935 Z " fill="rgb(251,190,190)"/><path d=" M 1452.416 853.002 L 1432.83 871.437 C 1432.83 871.437 1457.819 909.733 1457.819 913.785 C 1457.819 913.785 1459.17 951.605 1472.677 946.202 C 1472.677 946.202 1487.535 886.77 1487.535 886.77 C 1487.535 886.77 1486.184 831.39 1478.08 827.338 C 1478.08 827.338 1452.213 824.566 1452.213 824.566 C 1452.213 824.566 1463.222 851.651 1452.416 853.002 Z " fill="rgb(47,46,65)"/><path d=" M 1340.305 445.081 C 1340.305 445.081 1333.552 466.692 1332.201 472.095 C 1332.201 472.095 1322.746 492.356 1322.746 515.319 C 1322.746 515.319 1325.447 565.296 1322.746 567.997 C 1322.746 567.997 1276.821 721.981 1295.731 738.19 C 1295.731 738.19 1376.775 808.428 1380.827 815.181 C 1380.827 815.181 1386.23 838.144 1394.335 835.442 C 1394.335 835.442 1433.506 805.726 1434.857 800.323 C 1434.857 800.323 1417.297 785.465 1417.297 785.465 C 1417.297 785.465 1379.476 730.085 1370.021 731.436 C 1370.021 731.436 1361.917 724.682 1363.268 720.63 C 1363.268 720.63 1367.32 713.876 1363.268 713.876 C 1363.268 713.876 1361.917 703.071 1363.268 697.668 C 1363.268 697.668 1395.685 619.325 1395.685 619.325 L 1478.08 582.855 C 1478.08 582.855 1474.028 484.252 1444.312 457.237 L 1437.558 441.028 C 1437.558 441.028 1361.917 435.625 1340.305 445.081 Z " fill="rgb(47,46,65)"/><path d=" M 1374.074 231.665 C 1374.074 231.665 1380.827 278.94 1364.618 281.642 C 1364.618 281.642 1334.902 282.993 1334.902 284.343 C 1334.902 284.343 1375.424 327.567 1375.424 327.567 L 1413.245 324.865 L 1447.013 288.396 C 1447.013 288.396 1415.946 282.993 1415.946 264.082 C 1415.946 264.082 1414.596 231.665 1414.596 231.665 L 1374.074 231.665 Z " fill="rgb(251,190,190)"/><g opacity="0.1"><path d=" M 1374.074 231.665 C 1374.074 231.665 1380.827 278.94 1364.618 281.642 C 1364.618 281.642 1334.902 282.993 1334.902 284.343 C 1334.902 284.343 1375.424 327.567 1375.424 327.567 L 1413.245 324.865 L 1447.013 288.396 C 1447.013 288.396 1415.946 282.993 1415.946 264.082 C 1415.946 264.082 1414.596 231.665 1414.596 231.665 L 1374.074 231.665 Z " fill="rgb(0,0,0)"/></g><circle vector-effect="non-scaling-stroke" cx="1395.00989818995" cy="209.37771801091864" r="41.8727155797792" fill="rgb(251,190,190)"/><path d=" M 1357.865 277.59 C 1357.865 277.59 1305.186 284.343 1301.134 301.903 C 1301.134 301.903 1328.149 428.872 1332.201 438.327 C 1332.201 438.327 1334.902 454.536 1334.902 454.536 C 1347.268 445.288 1363.029 441.84 1378.126 445.081 C 1403.79 450.484 1440.259 447.782 1440.259 447.782 C 1440.259 447.782 1452.416 397.805 1455.118 392.402 C 1457.819 386.999 1468.625 357.283 1468.625 349.179 C 1468.625 341.074 1484.834 307.306 1484.834 307.306 C 1484.834 307.306 1476.729 282.993 1447.013 284.343 C 1447.013 284.343 1434.051 278.542 1430.402 282.793 C 1426.752 287.045 1406.491 305.955 1380.827 297.851 C 1355.163 289.746 1357.865 277.59 1357.865 277.59 Z " fill="rgb(109,176,73)"/><path d=" M 1315.992 300.552 L 1301.134 300.552 L 1293.03 407.26 C 1293.03 407.26 1322.746 415.364 1326.798 409.962 C 1330.85 404.559 1315.992 300.552 1315.992 300.552 Z " fill="rgb(109,176,73)"/><path d=" M 1297.082 396.454 L 1293.03 407.26 C 1293.03 407.26 1290.328 442.379 1306.537 441.028 C 1306.537 441.028 1332.201 419.417 1332.201 419.417 C 1332.201 419.417 1322.746 393.753 1311.94 396.454 C 1301.134 399.156 1297.082 396.454 1297.082 396.454 Z " fill="rgb(109,176,73)"/><path d=" M 1459.17 300.552 L 1484.834 307.306 C 1484.834 307.306 1503.744 376.193 1505.095 377.544 C 1505.095 377.544 1507.796 386.999 1507.796 386.999 C 1507.796 386.999 1507.796 388.35 1510.498 392.402 C 1510.498 392.402 1517.251 393.753 1514.55 399.156 C 1514.55 399.156 1507.796 401.857 1510.498 407.26 C 1510.498 407.26 1511.848 427.521 1511.848 427.521 C 1511.848 427.521 1505.095 401.857 1480.781 408.611 L 1464.573 335.671 L 1459.17 300.552 Z " fill="rgb(109,176,73)"/><path d=" M 1347.315 174.877 C 1338.8 189.837 1336.883 207.558 1335.708 224.731 C 1335.204 232.097 1334.825 239.656 1337.01 246.708 C 1339.313 254.144 1344.438 261.7 1341.81 269.027 C 1339.268 276.114 1330.767 278.95 1326.019 284.794 C 1321.996 289.746 1320.986 296.531 1321.335 302.902 C 1321.684 309.273 1323.229 315.528 1323.682 321.892 C 1324.617 335.872 1320.302 349.698 1311.581 360.664 C 1331.926 359.88 1353.678 350.858 1362.257 332.394 C 1364.822 326.875 1366.07 320.834 1368.384 315.205 C 1371.003 308.836 1374.954 303.072 1377.434 296.649 C 1381.175 286.957 1381.378 276.315 1381.533 265.928 C 1381.626 259.71 1381.692 253.326 1379.54 247.491 C 1374.803 234.647 1360.072 226.349 1358.61 212.737 C 1358.357 211.298 1358.57 209.816 1359.218 208.506 C 1359.905 207.549 1360.738 206.706 1361.688 206.008 C 1370.886 197.889 1369.369 180.701 1380.319 175.167 C 1385.233 172.683 1391.155 173.557 1396.432 175.129 C 1402.291 176.875 1408.136 179.579 1411.948 184.358 C 1419.624 193.983 1416.595 207.887 1414.22 219.967 C 1410.778 237.489 1409.557 255.375 1410.587 273.202 C 1410.654 276.053 1411.074 278.885 1411.839 281.633 C 1413.249 286.092 1416.256 289.837 1418.526 293.925 C 1423.151 302.33 1424.652 312.1 1422.762 321.505 C 1421.087 329.69 1416.925 338.406 1420.589 345.915 C 1422.202 348.814 1424.448 351.312 1427.161 353.223 C 1439.132 362.605 1454.327 368.418 1463.227 380.751 C 1464.76 370.677 1461.836 360.54 1459.677 350.581 C 1457.519 340.623 1456.205 329.781 1460.641 320.608 C 1462.587 316.583 1465.562 313.082 1467.153 308.904 C 1470.827 299.257 1466.448 288.674 1463.789 278.699 C 1461.887 270.865 1460.515 262.913 1459.681 254.895 L 1456.938 233.254 C 1454.67 215.363 1452.298 197.108 1444.442 180.876 C 1429.637 150.285 1396.133 138.924 1366.136 155.875 C 1358.275 160.411 1351.776 166.973 1347.315 174.877 L 1347.315 174.877 Z " fill="rgb(68,25,5)"/><path d=" M 1310.589 403.208 C 1310.589 403.208 1302.485 427.521 1311.94 427.521 C 1311.94 427.521 1338.955 412.663 1340.305 400.506 C 1340.305 400.506 1365.969 342.425 1348.41 346.477 C 1348.41 346.477 1322.746 384.298 1322.746 384.298 L 1310.589 403.208 Z " fill="rgb(251,190,190)"/><path d=" M 1447.013 300.552 L 1402.438 445.08 L 1463.221 458.588 L 1507.796 318.112 L 1447.013 300.552 L 1447.013 300.552 Z " fill="rgb(81,79,128)"/><path d=" M 1503.744 404.559 L 1512.182 418.661 C 1512.182 418.661 1515.9 445.081 1496.99 445.081 C 1496.99 445.081 1451.065 419.417 1451.065 419.417 C 1451.065 419.417 1437.558 414.014 1429.454 415.364 C 1429.454 415.364 1376.775 415.364 1395.685 392.402 C 1395.685 392.402 1447.013 392.402 1447.013 392.402 L 1480.781 408.611 L 1498.341 399.156 L 1503.744 404.559 Z " fill="rgb(251,190,190)"/><path d=" M 1492.263 386.324 L 1478.755 407.935 C 1478.755 407.935 1509.822 411.988 1512.524 418.741 C 1512.524 418.741 1500.367 383.622 1500.367 383.622 L 1492.263 386.324 Z " fill="rgb(109,176,73)"/></g></g></g></svg>